<svg viewBox="0 0 1792 2309.2599" xmlns="http://www.w3.org/2000/svg"><path d="M336 256h1120q139 0 237.5 98.5T1792 592v1120q0 139-98.5 237.5T1456 2048H336q-139 0-237.5-98.5T0 1712V592q0-139 98.5-237.5T336 256zm918 1493q12 0 21-12.5t13-25 11-37.5l269-1044q7-27-9-51t-36-24h-179q-12 0-21 12.5t-13 25-11 37.5l-134 521-134-521q-6-24-11-37.5t-14-25.5-20-12H806q-16 0-25.5 19.5T761 630l-134 521-134-521q-7-25-11-37.5t-13-25-21-12.5H269q-20 0-36 24t-9 51l269 1044q7 25 11 37.5t13 25 21 12.5h178q27 0 45-75l135-523 135 523q18 75 45 75h178z"/></svg>